<?xml version="1.0" encoding="iso-8859-1"?>
<!-- Uploaded to: SVG Repo, www.svgrepo.com, Generator: SVG Repo Mixer Tools -->
<svg height="800px" width="800px" version="1.1" id="Layer_1" xmlns="http://www.w3.org/2000/svg" xmlns:xlink="http://www.w3.org/1999/xlink" 
	 viewBox="0 0 512 512" xml:space="preserve">
<path style="fill:#ECB45C;" d="M230.188,0C141.51,0.002,69.363,72.15,69.363,160.828v106.956c0,14.319,5.576,27.782,15.703,37.907
	c9.426,9.426,21.742,14.902,34.953,15.613c0.979,0.052,1.962,0.086,2.952,0.086c0.002,0,0.005,0,0.007,0
	c13.717,0,26.244-5.179,35.735-13.683c9.491,8.506,22.02,13.683,35.739,13.686c6.263,0,12.276-1.081,17.867-3.063v3.063v41.695
	c0,1.848,0.094,3.673,0.276,5.473c0.183,1.8,0.456,3.574,0.815,5.317c0.536,2.615,1.264,5.161,2.166,7.622
	c0.315,0.855,0.656,1.696,1.013,2.53c0.088,0.208,0.179,0.417,0.27,0.624c0.366,0.828,0.745,1.649,1.15,2.454
	c0.407,0.809,0.841,1.601,1.287,2.386c0.11,0.191,0.219,0.38,0.329,0.569c0.455,0.779,0.922,1.549,1.415,2.303
	c0.538,0.823,1.108,1.626,1.689,2.417c0.112,0.152,0.224,0.306,0.337,0.457c0.573,0.762,1.165,1.509,1.776,2.238
	c0.106,0.126,0.217,0.25,0.323,0.376c0.585,0.685,1.187,1.357,1.805,2.011c0.075,0.08,0.149,0.162,0.224,0.242
	c0.662,0.693,1.347,1.364,2.045,2.019c0.148,0.139,0.297,0.276,0.446,0.415c0.705,0.648,1.422,1.282,2.161,1.892
	c0.087,0.071,0.176,0.141,0.266,0.212c0.696,0.567,1.406,1.115,2.129,1.646c0.137,0.1,0.272,0.203,0.409,0.301
	c0.77,0.555,1.557,1.089,2.356,1.603c0.168,0.107,0.335,0.211,0.503,0.317c0.83,0.521,1.669,1.027,2.529,1.503
	c0.001,0.001,0.002,0.001,0.005,0.002c0.858,0.475,1.735,0.92,2.62,1.349c0.18,0.087,0.361,0.175,0.541,0.26
	c0.867,0.407,1.746,0.795,2.638,1.156c0.158,0.064,0.32,0.124,0.479,0.188c0.847,0.334,1.704,0.648,2.571,0.941
	c0.111,0.037,0.219,0.077,0.329,0.114c0.927,0.305,1.869,0.58,2.817,0.835c0.205,0.055,0.41,0.108,0.616,0.161
	c0.954,0.244,1.914,0.468,2.89,0.66c0.117,0.023,0.233,0.041,0.351,0.063c0.913,0.174,1.833,0.322,2.759,0.448
	c0.179,0.024,0.356,0.051,0.535,0.075c0.984,0.124,1.978,0.219,2.978,0.288c0.21,0.015,0.422,0.025,0.63,0.038
	c1.035,0.061,2.078,0.101,3.127,0.101c0.002,0,0.002,0,0.002,0c29.561,0,53.608-24.049,53.608-53.608v-41.695v-35.739v-3.062
	c5.591,1.982,11.608,3.062,17.869,3.062c29.561,0,53.608-24.049,53.608-53.608v-71.217C391.013,72.15,318.867,0.002,230.188,0z"/>
<path style="fill:#898890;" d="M329.463,321.392c42.699,0,77.434,34.737,77.434,77.434s-34.736,77.434-77.434,77.434H202.39
	c-42.697,0-77.433-34.737-77.433-77.434s34.736-77.434,77.433-77.434h9.928v-3.063c-5.591,1.984-11.604,3.063-17.867,3.063
	c-13.719-0.001-26.248-5.18-35.739-13.686c-9.491,8.505-22.019,13.683-35.735,13.683c-0.002,0-0.005,0-0.007,0
	c-0.989,0-1.972-0.032-2.952-0.086c-19.086,20.269-30.8,47.551-30.8,77.523C89.218,461.23,139.986,512,202.39,512h127.073
	c62.404,0,113.173-50.77,113.173-113.173s-50.77-113.173-113.173-113.173h-9.928v35.739H329.463z"/>
<path style="fill:#EFC27B;" d="M319.535,232.045c0,9.853,8.016,17.869,17.87,17.869c9.854,0,17.869-8.016,17.869-17.869v-71.217
	c0-68.971-56.111-125.086-125.085-125.089c-68.973,0.002-125.086,56.116-125.086,125.089v106.956c0,4.772,1.86,9.26,5.235,12.635
	c3.374,3.375,7.861,5.233,12.633,5.232c9.858,0,17.872-8.015,17.872-17.867c0-9.869,8.001-17.869,17.869-17.869
	c9.869,0,17.869,8.001,17.869,17.869c0,9.852,8.016,17.868,17.871,17.869c9.851-0.001,17.867-8.017,17.867-17.869v-33.156
	c0-9.869,8.001-17.869,17.869-17.869c4.821,0,9.186,1.918,12.401,5.02c3.365,3.25,5.468,7.801,5.468,12.849v33.156v35.739v59.565
	c0,9.694,7.765,17.592,17.401,17.846c0.156,0.004,0.312,0.024,0.469,0.024c9.852,0,17.867-8.016,17.867-17.869v-59.565v-71.478
	v-52.963v-18.515c0-9.869,8.002-17.869,17.869-17.869c9.87,0,17.869,8.001,17.869,17.869v71.478H319.535z"/>
<g>
	<path style="fill:#ECB45C;" d="M224.842,397.479c0.106,0.126,0.217,0.25,0.324,0.376
		C225.059,397.729,224.948,397.605,224.842,397.479z"/>
	<path style="fill:#ECB45C;" d="M252.037,414.862c0.205,0.055,0.41,0.108,0.616,0.161
		C252.447,414.971,252.242,414.916,252.037,414.862z"/>
	<path style="fill:#ECB45C;" d="M255.543,415.684c0.117,0.023,0.234,0.04,0.351,0.063
		C255.777,415.724,255.659,415.706,255.543,415.684z"/>
	<path style="fill:#ECB45C;" d="M245.84,412.785c0.158,0.064,0.319,0.124,0.479,0.188
		C246.16,412.909,245.998,412.849,245.84,412.785z"/>
	<path style="fill:#ECB45C;" d="M248.891,413.913c0.111,0.037,0.219,0.077,0.329,0.114
		C249.109,413.991,249.001,413.95,248.891,413.913z"/>
	<path style="fill:#ECB45C;" d="M258.652,416.195c0.179,0.024,0.356,0.051,0.535,0.075
		C259.009,416.246,258.832,416.218,258.652,416.195z"/>
	<path style="fill:#ECB45C;" d="M227.195,400.108c-0.076-0.08-0.149-0.162-0.225-0.242
		C227.046,399.948,227.119,400.03,227.195,400.108z"/>
	<path style="fill:#ECB45C;" d="M262.167,416.558c0.21,0.015,0.422,0.025,0.63,0.038
		C262.587,416.583,262.375,416.572,262.167,416.558z"/>
	<path style="fill:#ECB45C;" d="M222.729,394.782c0.112,0.152,0.224,0.306,0.337,0.457
		C222.952,395.089,222.84,394.936,222.729,394.782z"/>
	<path style="fill:#ECB45C;" d="M234.242,406.292c0.137,0.1,0.27,0.203,0.409,0.301
		C234.512,406.496,234.379,406.393,234.242,406.292z"/>
	<path style="fill:#ECB45C;" d="M237.005,408.199c0.168,0.107,0.335,0.211,0.503,0.317
		C237.34,408.409,237.173,408.306,237.005,408.199z"/>
	<path style="fill:#ECB45C;" d="M231.847,404.434c0.087,0.073,0.176,0.141,0.266,0.212
		C232.023,404.575,231.934,404.505,231.847,404.434z"/>
	<path style="fill:#ECB45C;" d="M216.588,384.029c0.088,0.208,0.179,0.417,0.27,0.624
		C216.768,384.446,216.677,384.239,216.588,384.029z"/>
	<path style="fill:#ECB45C;" d="M242.662,411.369c0.18,0.087,0.361,0.175,0.541,0.26
		C243.023,411.544,242.841,411.456,242.662,411.369z"/>
	<path style="fill:#ECB45C;" d="M219.294,389.494c0.11,0.191,0.219,0.38,0.329,0.569
		C219.512,389.874,219.404,389.685,219.294,389.494z"/>
	<path style="fill:#ECB45C;" d="M229.239,402.129c0.148,0.139,0.297,0.276,0.446,0.415
		C229.536,402.405,229.387,402.267,229.239,402.129z"/>
	<path style="fill:#ECB45C;" d="M240.037,410.018c0.001,0.001,0.002,0.001,0.005,0.002
		C240.04,410.02,240.038,410.019,240.037,410.018z"/>
</g>
</svg>