<?xml version="1.0" encoding="utf-8"?>

<svg version="1.1" id="Icons" xmlns="http://www.w3.org/2000/svg" xmlns:xlink="http://www.w3.org/1999/xlink" x="0px" y="0px"
	 viewBox="0 0 32 32" style="enable-background:new 0 0 32 32;" xml:space="preserve">
<style type="text/css">
	.st0{fill:none;stroke:#000000;stroke-width:2;stroke-linecap:round;stroke-linejoin:round;stroke-miterlimit:10;}
	.st1{fill:none;stroke:#000000;stroke-width:2;stroke-linejoin:round;stroke-miterlimit:10;}
</style>
<circle class="st0" cx="22" cy="22" r="7"/>
<ellipse class="st0" cx="22" cy="22" rx="3" ry="7"/>
<line class="st0" x1="15" y1="22" x2="29" y2="22"/>
<path class="st0" d="M20.6,15.1c0.3-0.7,0.4-1.4,0.4-2.1v0c0-1.1,0.9-2,2-2h0l0-2.3c0-2.8-2.1-5.4-4.9-5.7c-2-0.2-3.8,0.6-4.9,2.1
	c-0.8-0.2-1.6-0.1-2.6,0.6C9.6,6.4,9,7.7,9,9l0,1v1.5v1.3c0,2.2,1.2,4.3,3,5.4v0c0,2.3-1.6,4.2-3.8,4.8c-2.6,0.7-4.5,2.8-5.1,5.4
	C3.1,28.7,3.3,29,3.7,29L22,29"/>
</svg>
